<?xml version="1.0" encoding="UTF-8"?>
<svg version="1.1" xmlns="http://www.w3.org/2000/svg" width="454" height="383">
<path d="M0 0 C0.80630859 0.42410156 1.61261719 0.84820312 2.44335938 1.28515625 C3.26771484 1.73503906 4.09207031 2.18492188 4.94140625 2.6484375 C5.76189453 3.07511719 6.58238281 3.50179687 7.42773438 3.94140625 C12.73167831 6.77751354 17.07316739 9.95646051 21.50390625 14.0234375 C21.83390625 12.9303125 22.16390625 11.8371875 22.50390625 10.7109375 C23.98570517 7.26088835 24.37462516 7.08069256 28.09375 5.43359375 C32.36409655 3.99424314 36.68497333 2.82022328 41.06640625 1.7734375 C41.78248047 1.5878125 42.49855469 1.4021875 43.23632812 1.2109375 C47.92362032 0.08496376 51.74785682 -0.26992576 56.50390625 1.0234375 C58.46561148 3.07539826 59.41302511 4.40714764 59.82983398 7.23364258 C59.80348877 8.05759521 59.77714355 8.88154785 59.75 9.73046875 C59.72276855 10.70064941 59.69553711 11.67083008 59.66748047 12.67041016 C59.61350098 13.77690918 59.55952148 14.8834082 59.50390625 16.0234375 C59.44348145 17.29622559 59.38305664 18.56901367 59.32080078 19.88037109 C59.13948581 23.42617413 58.92746753 26.96954287 58.7043457 30.51293945 C58.5660031 32.71736144 58.43401344 34.92210038 58.30273438 37.12695312 C58.21521895 38.55471055 58.1273409 39.9824458 58.0390625 41.41015625 C57.96051025 42.68076904 57.88195801 43.95138184 57.80102539 45.26049805 C57.48939819 49.20717845 57.02339847 53.09938196 56.50390625 57.0234375 C57.49390625 57.0234375 58.48390625 57.0234375 59.50390625 57.0234375 C59.50390625 43.8234375 59.50390625 30.6234375 59.50390625 17.0234375 C59.83390625 17.0234375 60.16390625 17.0234375 60.50390625 17.0234375 C60.57738281 16.08371094 60.57738281 16.08371094 60.65234375 15.125 C60.72710937 14.30773437 60.801875 13.49046875 60.87890625 12.6484375 C60.94851562 11.83632812 61.018125 11.02421875 61.08984375 10.1875 C61.50390625 8.0234375 61.50390625 8.0234375 63.50390625 6.0234375 C67.34979354 4.71614143 71.31358162 3.81640469 75.25390625 2.8359375 C76.33929688 2.55041016 77.4246875 2.26488281 78.54296875 1.97070312 C79.59742188 1.70580078 80.651875 1.44089844 81.73828125 1.16796875 C82.69959961 0.92409424 83.66091797 0.68021973 84.65136719 0.42895508 C87.95118843 -0.04014823 90.30037578 0.09253249 93.50390625 1.0234375 C95.85457086 3.18594992 96.4317142 4.49079865 96.86035156 7.65332031 C96.84633301 9.1745752 96.84633301 9.1745752 96.83203125 10.7265625 C96.82751953 11.9125 96.82300781 13.0984375 96.81835938 14.3203125 C96.79708984 15.62484375 96.77582031 16.929375 96.75390625 18.2734375 C96.74184202 19.64842912 96.73080404 21.02343006 96.72070312 22.3984375 C96.67653625 27.27396959 96.5922588 32.14853177 96.50390625 37.0234375 C96.48610107 38.02238037 96.4682959 39.02132324 96.44995117 40.05053711 C96.17962827 55.04252996 95.85688324 70.03318073 95.50390625 85.0234375 C95.61221771 84.08018616 95.72052917 83.13693481 95.8321228 82.1651001 C96.85373836 73.27686816 97.8832974 64.38958767 98.92064476 55.50317764 C99.45370221 50.93453592 99.98395368 46.36560479 100.5078125 41.79589844 C101.01344735 37.38607289 101.52642656 32.97715831 102.0445137 28.56877899 C102.24090118 26.88657753 102.43463828 25.20406448 102.62568283 23.52124786 C102.89367741 21.16465313 103.171066 18.80934143 103.45068359 16.45410156 C103.52764969 15.75782654 103.60461578 15.06155151 103.68391418 14.34417725 C104.47592008 7.83494077 104.47592008 7.83494077 106.50390625 5.0234375 C111.72379371 3.32163619 116.99261534 2.57394819 122.44140625 1.953125 C123.52796509 1.82419357 123.52796509 1.82419357 124.63647461 1.69265747 C126.1554639 1.51374947 127.67475849 1.33741595 129.19433594 1.16357422 C131.49898075 0.89900294 133.80219853 0.62391128 136.10546875 0.34765625 C137.59237437 0.17384882 139.07935144 0.00065131 140.56640625 -0.171875 C141.24372803 -0.25309601 141.9210498 -0.33431702 142.61889648 -0.41799927 C156.37467005 -1.96596843 156.37467005 -1.96596843 161.50390625 2.0234375 C162.08140625 2.7865625 162.65890625 3.5496875 163.25390625 4.3359375 C163.99640625 4.8928125 164.73890625 5.4496875 165.50390625 6.0234375 C167.55740259 5.58034314 169.60882022 5.1255112 171.64886475 4.62411499 C177.54563653 3.38348221 183.5798905 3.01964214 189.57421875 2.48046875 C191.02434781 2.34668412 192.47445116 2.21262044 193.92453003 2.07829285 C196.94820301 1.79964078 199.97223671 1.52540402 202.99658203 1.25415039 C206.85842137 0.90727188 210.7189576 0.54768362 214.57930183 0.18459034 C217.56775196 -0.09479044 220.55685627 -0.36658714 223.5461998 -0.63622475 C224.96968472 -0.76568371 226.39294417 -0.89764892 227.8159523 -1.03224754 C229.80773375 -1.21966429 231.80058809 -1.39556911 233.79345703 -1.57104492 C234.92324982 -1.67382248 236.0530426 -1.77660004 237.21707153 -1.88249207 C241.78934532 -2.01335225 245.95026617 -1.89281178 249.94140625 0.4609375 C251.50390625 2.0234375 251.50390625 2.0234375 251.50390625 4.0234375 C252.0822522 3.96301773 252.66059814 3.90259796 253.25646973 3.84034729 C259.35726021 3.20365892 265.45852189 2.57163464 271.56005859 1.94213867 C273.82743148 1.70762165 276.09468777 1.47197407 278.36181641 1.23510742 C284.78823206 0.56409316 291.2162191 -0.08202705 297.6484375 -0.69500732 C300.25451869 -0.95197237 302.85510249 -1.24015925 305.45703125 -1.53564453 C306.87875092 -1.67509536 308.30061499 -1.81308638 309.72265625 -1.94921875 C310.90794922 -2.0769165 312.09324219 -2.20461426 313.31445312 -2.33618164 C316.50390625 -1.9765625 316.50390625 -1.9765625 319.48657227 0.52514648 C322.28617931 3.31407992 322.28617931 3.31407992 325.84936523 3.36767578 C327.07469971 3.23603027 328.30003418 3.10438477 329.5625 2.96875 C330.247108 2.90334015 330.931716 2.8379303 331.6370697 2.77053833 C333.13272603 2.62408949 334.62717627 2.4648958 336.12030029 2.29455566 C338.58876954 2.01378491 341.05879827 1.76829399 343.53173828 1.53027344 C349.80376526 0.92016179 356.0717534 0.27219387 362.33764648 -0.39794922 C365.02905955 -0.68431538 367.72139573 -0.9600839 370.4140625 -1.234375 C371.22456558 -1.32389435 372.03506866 -1.4134137 372.87013245 -1.50564575 C378.37547803 -2.05663111 383.70260262 -2.31590632 388.82421875 0.1328125 C391.28579047 2.37060497 392.34859056 3.85731283 393.50390625 7.0234375 C394.0646978 24.78312567 385.92955726 41.76357166 379.12890625 57.7109375 C378.42406929 59.37303588 377.71964827 61.0353107 377.015625 62.69775391 C375.57062247 66.10771392 374.12294849 69.51651972 372.67285156 72.92431641 C370.55702051 77.89672103 368.44766196 82.87185063 366.33984375 87.84765625 C363.0657835 95.57486814 359.78667305 103.29992035 356.50390625 111.0234375 C363.31102465 110.4581431 369.96275173 109.68119762 376.6796875 108.42578125 C381.16874136 107.78626182 384.35650702 107.33499796 388.31640625 109.7109375 C390.83326801 112.37161994 391.10430684 113.44812476 391.50390625 117.0234375 C391.19018555 119.91430664 391.19018555 119.91430664 390.578125 123.05859375 C390.35833984 124.19748047 390.13855469 125.33636719 389.91210938 126.50976562 C389.67427734 127.68990234 389.43644531 128.87003906 389.19140625 130.0859375 C388.96517578 131.26994141 388.73894531 132.45394531 388.50585938 133.67382812 C386.40916251 144.33858305 386.40916251 144.33858305 384.50390625 147.0234375 C374.88267607 150.67862848 362.087381 150.0508926 351.91479492 150.88330078 C348.70871843 151.1470135 345.50381531 151.42261757 342.29882812 151.69921875 C316.19054369 153.90444109 316.19054369 153.90444109 309.50390625 153.0234375 C308.82497314 152.26546875 308.82497314 152.26546875 308.13232422 151.4921875 C306.41957633 149.63206945 306.41957633 149.63206945 302.87426758 149.88330078 C301.3395368 149.97850606 299.80586078 150.09170073 298.2734375 150.21875 C297.43891556 150.27523712 296.60439362 150.33172424 295.74458313 150.3899231 C292.99588635 150.5819291 290.25017999 150.79953037 287.50390625 151.0234375 C286.57157166 151.09816284 285.63923706 151.17288818 284.6786499 151.24987793 C282.76353388 151.40401152 280.84850558 151.55923867 278.93356323 151.71551514 C275.01419849 152.0346719 271.09421507 152.34583107 267.17407227 152.65527344 C265.16161803 152.81934026 263.14987963 152.99240231 261.13891602 153.17382812 C258.18259463 153.43789989 255.2252752 153.66741164 252.265625 153.890625 C251.37187668 153.97891571 250.47812836 154.06720642 249.55729675 154.15817261 C245.18507842 154.4562635 242.44500728 154.47372884 238.95141602 151.64501953 C235.61266971 148.06881426 235.61266971 148.06881426 235.50390625 145.0234375 C236.31315256 128.24996852 243.02013027 113.2833705 249.50390625 98.0234375 C250.08881836 96.64333496 250.08881836 96.64333496 250.68554688 95.23535156 C252.08910851 91.93634949 253.50099193 88.64128292 254.93237305 85.35424805 C259.19467562 75.54081958 263.16774001 65.60868089 267.16357422 55.68457031 C267.4362059 55.00904617 267.70883759 54.33352203 267.98973083 53.63752747 C268.73670074 51.78619466 269.48157617 49.93401718 270.22631836 48.08178711 C271.23507612 45.66697562 272.29061236 43.33972584 273.50390625 41.0234375 C272.28574219 41.24 271.06757813 41.4565625 269.8125 41.6796875 C268.18885527 41.96124439 266.56515432 42.24247719 264.94140625 42.5234375 C264.14154297 42.66652344 263.34167969 42.80960938 262.51757812 42.95703125 C257.81639012 43.76294919 253.27736624 44.53260657 248.50390625 44.0234375 C247.75294678 43.35119141 247.0019873 42.67894531 246.22827148 41.98632812 C242.70819704 39.45013325 240.9335164 39.75924233 236.69140625 40.2734375 C235.52996094 40.40234375 234.36851562 40.53125 233.171875 40.6640625 C232.29144531 40.78265625 231.41101563 40.90125 230.50390625 41.0234375 C230.00424985 48.56387772 229.52792029 56.1055674 229.06640625 63.6484375 C228.99599121 64.79326599 228.92557617 65.93809448 228.85302734 67.11761475 C227.58083317 88.1691382 227.06320752 109.19146715 226.97094727 130.27978516 C226.95071054 132.46777369 226.93044824 134.65576198 226.91015625 136.84375 C226.91486183 138.3526178 226.91486183 138.3526178 226.91966248 139.89196777 C226.90432213 141.26439636 226.90432213 141.26439636 226.88867188 142.66455078 C226.88559021 143.86158127 226.88559021 143.86158127 226.88244629 145.08279419 C226.69506897 146.04341263 226.69506897 146.04341263 226.50390625 147.0234375 C222.11906327 149.94666616 217.51983276 150.28090615 212.37890625 151.1484375 C210.86683594 151.42107422 210.86683594 151.42107422 209.32421875 151.69921875 C204.762962 152.48503112 200.19768643 153.18295967 195.57421875 153.453125 C194.90406738 153.49421387 194.23391602 153.53530273 193.54345703 153.57763672 C190.0155008 152.61899886 188.65326152 150.93723393 186.50390625 148.0234375 C185.82950465 144.78152557 185.97148699 141.63682059 186.1015625 138.33984375 C186.13154076 136.84911095 186.13154076 136.84911095 186.16212463 135.32826233 C186.24376984 131.89157277 186.37030016 128.45848873 186.50390625 125.0234375 C186.54940613 123.7431366 186.59490601 122.46283569 186.64178467 121.14373779 C186.97557432 111.82657706 187.39541828 102.51415974 187.83630371 93.20153809 C187.9772209 90.19743246 188.11284293 87.19309775 188.24832058 84.18874264 C188.38142517 81.24319588 188.51659813 78.29774705 188.65248299 75.35232735 C188.71619357 73.971162 188.77957632 72.58998149 188.84258842 71.2087841 C189.25926529 62.1328791 189.8256113 53.08333716 190.50390625 44.0234375 C183.57390625 45.0134375 176.64390625 46.0034375 169.50390625 47.0234375 C169.9144516 59.11171733 170.97124679 71.04898454 172.3515625 83.05859375 C172.48311296 84.2044652 172.48311296 84.2044652 172.61732101 85.37348557 C173.25904638 90.94524012 173.9117502 96.51568973 174.56640625 102.0859375 C175.2251497 107.69316399 175.87992643 113.30080244 176.52538872 118.90957451 C176.78221538 121.12454165 177.04582891 123.33862798 177.30982971 125.55274963 C178.14816905 132.73286886 178.77138285 139.78884202 178.50390625 147.0234375 C173.89029321 149.18020783 169.24142015 149.88352926 164.25390625 150.6484375 C163.44566406 150.7825 162.63742188 150.9165625 161.8046875 151.0546875 C147.53410899 153.29231421 147.53410899 153.29231421 142.50390625 150.1484375 C138.70313397 146.11011696 138.96012273 141.84124203 138.44140625 136.5234375 C138.35052734 135.66234375 138.25964844 134.80125 138.16601562 133.9140625 C137.56955991 127.92259762 137.42269192 122.04412613 137.50390625 116.0234375 C133.04890625 116.5184375 133.04890625 116.5184375 128.50390625 117.0234375 C128.54515625 118.4465625 128.58640625 119.8696875 128.62890625 121.3359375 C128.62890625 126.95861545 128.18404144 132.49613694 127.62890625 138.0859375 C127.55043457 138.9313208 127.47196289 139.7767041 127.39111328 140.64770508 C127.30716309 141.44329834 127.22321289 142.2388916 127.13671875 143.05859375 C127.06340332 143.774104 126.99008789 144.48961426 126.91455078 145.22680664 C126.50390625 147.0234375 126.50390625 147.0234375 124.50390625 149.0234375 C120.45569834 149.94816933 116.34960818 150.47877938 112.23754883 151.0480957 C110.20645055 151.33382114 108.18098483 151.64758423 106.15429688 151.96289062 C104.87103516 152.14400391 103.58777344 152.32511719 102.265625 152.51171875 C100.50158325 152.76755737 100.50158325 152.76755737 98.7019043 153.02856445 C95.01573895 153.02265488 93.36343595 152.30427286 90.50390625 150.0234375 C90.50390625 149.3634375 90.50390625 148.7034375 90.50390625 148.0234375 C89.90441162 148.14460937 89.30491699 148.26578125 88.68725586 148.390625 C85.93997866 148.94182945 83.19076204 149.48270041 80.44140625 150.0234375 C79.49845703 150.21421875 78.55550781 150.405 77.58398438 150.6015625 C64.39903838 153.17423489 64.39903838 153.17423489 59.58984375 150.25390625 C56.44141162 145.37796361 56.93183476 141.01343361 57.12890625 135.3359375 C57.14888672 134.20430176 57.16886719 133.07266602 57.18945312 131.90673828 C57.26346988 128.2774166 57.37855906 124.65132955 57.50390625 121.0234375 C57.54354492 119.78223145 57.58318359 118.54102539 57.62402344 117.26220703 C57.8663875 109.84683623 58.15927961 102.43474347 58.50390625 95.0234375 C57.51390625 95.0234375 56.52390625 95.0234375 55.50390625 95.0234375 C55.50914307 95.96437256 55.51437988 96.90530762 55.51977539 97.87475586 C55.56998532 108.25804272 55.56915321 118.64021527 55.50390625 129.0234375 C55.49520508 130.62251953 55.49520508 130.62251953 55.48632812 132.25390625 C55.46030395 134.65854002 55.40053843 137.05775579 55.31640625 139.4609375 C55.28160156 140.69714844 55.24679688 141.93335938 55.2109375 143.20703125 C54.50390625 146.0234375 54.50390625 146.0234375 52.53515625 147.796875 C48.4909819 149.43330638 44.46133298 150.35695215 40.19140625 151.2109375 C38.96647461 151.47680664 38.96647461 151.47680664 37.71679688 151.74804688 C32.55115094 152.81410448 27.77825148 153.41455579 22.50390625 153.0234375 C19.17973771 150.32255056 17.73485339 148.86801534 17.203125 144.62109375 C17.19258612 142.39739081 17.28272764 140.23522362 17.50390625 138.0234375 C16.59769531 138.75949219 15.69148438 139.49554688 14.7578125 140.25390625 C11.05283705 143.23879562 7.29130117 146.14416865 3.50390625 149.0234375 C2.68664063 149.65507812 1.869375 150.28671875 1.02734375 150.9375 C-3.26845198 153.81745294 -6.24623217 154.28214511 -11.37109375 153.5859375 C-13.75100214 153.0880134 -16.12549991 152.56397168 -18.49609375 152.0234375 C-20.12262489 151.7169067 -21.75031519 151.41648473 -23.37890625 151.12109375 C-25.08494532 150.79850968 -26.79067701 150.47429566 -28.49609375 150.1484375 C-29.71594971 149.92522827 -29.71594971 149.92522827 -30.96044922 149.69750977 C-37.9527241 148.27186503 -41.44822629 145.68366027 -45.5390625 139.80078125 C-46.59556754 138.19294149 -47.64356068 136.57948092 -48.68359375 134.9609375 C-49.21662109 134.14560547 -49.74964844 133.33027344 -50.29882812 132.49023438 C-51.28523732 130.98022181 -52.26829951 129.4680134 -53.24682617 127.95288086 C-54.31642901 126.30092244 -55.40444477 124.66091097 -56.49609375 123.0234375 C-56.67300045 120.18914612 -56.72544611 117.46548855 -56.6796875 114.6328125 C-56.66862221 113.32446442 -56.66862221 113.32446442 -56.65733337 111.98968506 C-56.52556439 100.66919155 -56.11178889 89.35347898 -55.6965332 78.04052734 C-55.55830096 74.26544161 -55.42621017 70.49017672 -55.29492188 66.71484375 C-55.08773175 60.82574395 -54.85734908 54.93790773 -54.61395264 49.05020142 C-54.50973113 46.37366254 -54.42859035 43.69779819 -54.35595703 41.02026367 C-54.09958385 33.41679859 -53.24315192 27.40068513 -49.24609375 20.8359375 C-48.86324219 20.13919922 -48.48039062 19.44246094 -48.0859375 18.72460938 C-44.28847342 12.03777045 -40.30835263 7.8851252 -32.875 5.34765625 C-32.25261948 5.13277054 -31.63023895 4.91788483 -30.98899841 4.69648743 C-29.68116985 4.24855181 -28.37088322 3.80773481 -27.05834961 3.3737793 C-25.0615546 2.71191891 -23.07478807 2.02491906 -21.08789062 1.33398438 C-6.71283878 -3.54983508 -6.71283878 -3.54983508 0 0 Z M163.50390625 7.0234375 C164.50390625 11.0234375 164.50390625 11.0234375 164.50390625 11.0234375 Z M-13.49609375 37.0234375 C-18.67920723 42.20655098 -15.62414489 65.0826228 -15.63397217 72.07147217 C-15.63319501 74.52095656 -15.63067469 76.97044098 -15.62646484 79.41992188 C-15.6210543 83.17582136 -15.62646643 86.9316039 -15.6328125 90.6875 C-15.63215249 93.09375026 -15.63087294 95.50000045 -15.62890625 97.90625 C-15.63093048 99.01984894 -15.63295471 100.13344788 -15.63504028 101.28079224 C-15.61889758 106.63619993 -15.44179346 111.74836774 -14.49609375 117.0234375 C-12.36882291 116.24559581 -12.36882291 116.24559581 -11.90625 114.4140625 C-11.35601916 111.20700276 -11.14402049 108.02002151 -10.93359375 104.7734375 C-10.84980469 103.51015625 -10.76601563 102.246875 -10.6796875 100.9453125 C-10.61910156 99.98109375 -10.55851562 99.016875 -10.49609375 98.0234375 C-5.56184955 95.7811833 -0.75408402 94.13028951 4.50390625 92.8359375 C5.51324219 92.57006836 5.51324219 92.57006836 6.54296875 92.29882812 C7.21070312 92.13189453 7.8784375 91.96496094 8.56640625 91.79296875 C9.45005859 91.57024292 9.45005859 91.57024292 10.3515625 91.34301758 C13.37109964 90.89467659 16.45126573 91.0234375 19.50390625 91.0234375 C19.83390625 81.7834375 20.16390625 72.5434375 20.50390625 63.0234375 C13.20651274 63.68683691 6.54466022 64.4845141 -0.55078125 65.9140625 C-4.16152421 66.04814845 -5.63570456 65.15627125 -8.49609375 63.0234375 C-13.6101091 57.90942215 -12.05674206 44.11849987 -12.49609375 37.0234375 C-12.82609375 37.0234375 -13.15609375 37.0234375 -13.49609375 37.0234375 Z M335.62890625 41.9609375 C328.86096202 43.09527236 322.34565039 43.18468215 315.50390625 43.0234375 C310.72840528 52.3500452 306.31439256 61.76263042 302.19140625 71.3984375 C301.63271725 72.69700417 301.07387684 73.99550571 300.51489258 75.29394531 C298.83605433 79.20016476 297.1679451 83.11089368 295.50390625 87.0234375 C295.24254883 87.6376355 294.98119141 88.2518335 294.71191406 88.88464355 C293.0287065 92.84352438 291.356622 96.80695864 289.69140625 100.7734375 C289.05174927 102.2901001 289.05174927 102.2901001 288.39916992 103.83740234 C288.0147876 104.7598877 287.63040527 105.68237305 287.234375 106.6328125 C286.89817139 107.43686523 286.56196777 108.24091797 286.21557617 109.06933594 C285.38983795 110.9900359 285.38983795 110.9900359 285.50390625 113.0234375 C293.81018595 112.0437759 302.06469979 111.0468798 310.26953125 109.390625 C312.50390625 109.0234375 312.50390625 109.0234375 316.50390625 109.0234375 C316.78363281 108.34394043 317.06335938 107.66444336 317.3515625 106.96435547 C326.28952003 85.26969087 335.37842837 63.63980537 344.50390625 42.0234375 C340.97023051 40.84554559 339.26278759 41.28125065 335.62890625 41.9609375 Z M132.50390625 80.0234375 C133.50390625 82.0234375 133.50390625 82.0234375 133.50390625 82.0234375 Z " fill="#54BCBF" transform="translate(58.49609375,110.9765625)"/>
<path d="M0 0 C1.85625 0.0309375 1.85625 0.0309375 3.75 0.0625 C6.1859479 21.31454418 8.41524086 42.58027666 10.4989624 63.86972046 C12.17747925 80.96136794 14.09042596 98.01465523 16.22631836 115.05517578 C16.38011459 116.29889198 16.38011459 116.29889198 16.53701782 117.56773376 C16.72597489 119.09308269 16.91842093 120.61800593 17.11532593 122.14234924 C17.65342454 126.49604154 17.83386736 130.68747894 17.75 135.0625 C14.8759578 135.56862064 12.00097127 136.06756541 9.125 136.5625 C8.31675781 136.70558594 7.50851563 136.84867188 6.67578125 136.99609375 C5.48662109 137.19912109 5.48662109 137.19912109 4.2734375 137.40625 C3.55075684 137.53193359 2.82807617 137.65761719 2.08349609 137.78710938 C-0.67669698 138.11285721 -3.47065161 138.0625 -6.25 138.0625 C-7.24 125.8525 -8.23 113.6425 -9.25 101.0625 C-16.63417985 101.63051383 -23.91302863 102.19201187 -31.25 103.0625 C-31.20875 104.320625 -31.1675 105.57875 -31.125 106.875 C-31.11719477 112.29183016 -31.6234282 117.61895834 -32.1875 123 C-32.27435059 123.84087158 -32.36120117 124.68174316 -32.45068359 125.5480957 C-32.81800173 128.90861536 -33.17594397 131.8403319 -34.25 135.0625 C-37.14503383 135.56755263 -40.04087953 136.0667022 -42.9375 136.5625 C-43.75412109 136.70558594 -44.57074219 136.84867188 -45.41210938 136.99609375 C-46.20810547 137.13144531 -47.00410156 137.26679688 -47.82421875 137.40625 C-48.55213623 137.53193359 -49.28005371 137.65761719 -50.0300293 137.78710938 C-52.45627832 138.08808913 -54.80759834 138.10755583 -57.25 138.0625 C-56.67343677 128.44881477 -55.69206773 118.9787006 -54.375 109.4375 C-54.21386719 108.23738281 -54.05273438 107.03726563 -53.88671875 105.80078125 C-53.1521061 100.38514845 -52.39744134 94.97528402 -51.55810547 89.57495117 C-49.57128178 76.76587409 -47.98007974 63.92977734 -46.51513672 51.05102539 C-46.12265967 47.60444814 -45.72380488 44.15865017 -45.32421875 40.71289062 C-43.62464594 26.08054683 -43.62464594 26.08054683 -42.46533203 11.39819336 C-42.26178323 9.19031194 -41.85422409 7.19215754 -41.25 5.0625 C-40.2712793 4.94656494 -39.29255859 4.83062988 -38.28417969 4.71118164 C-34.64600973 4.27953004 -31.00825093 3.84449496 -27.37060547 3.40844727 C-25.79747312 3.22035183 -24.22423141 3.03316874 -22.65087891 2.84692383 C-20.38674884 2.5787467 -18.12303501 2.30726907 -15.859375 2.03515625 C-14.80759064 1.9116555 -14.80759064 1.9116555 -13.73455811 1.78565979 C-11.13186054 1.47033465 -8.58479189 1.14686371 -6.04003906 0.50561523 C-3.9712849 -0.00649453 -2.12754081 -0.03545901 0 0 Z M-19.25 75.0625 C-18.25 77.0625 -18.25 77.0625 -18.25 77.0625 Z " fill="#ABEDEA" transform="translate(210.25,115.9375)"/>
<path d="M0 0 C-0.51605739 19.05636311 -1.48937665 37.99517093 -3 57 C-1.515 56.505 -1.515 56.505 0 56 C2.56634861 55.77281504 5.11678107 55.58391816 7.6875 55.4375 C8.38939453 55.39431641 9.09128906 55.35113281 9.81445312 55.30664062 C11.54275206 55.2008264 13.2713511 55.09993419 15 55 C14.98839844 54.05125 14.97679687 53.1025 14.96484375 52.125 C14.89273287 43.25979934 15.07527906 34.42076098 15.4375 25.5625 C15.47673584 24.56927734 15.51597168 23.57605469 15.55639648 22.55273438 C15.82665647 16.34038574 16.30959796 10.17973357 17 4 C19.58193977 3.32749476 22.16532071 2.66182099 24.75 2 C25.47960937 1.80921875 26.20921875 1.6184375 26.9609375 1.421875 C30.44571646 0.53484036 33.38123722 0 37 0 C37.07332274 28.71741336 36.89022678 57.42576709 36.53643799 86.14093018 C36.47427235 91.23195257 36.41502184 96.32300899 36.35546875 101.4140625 C36.23970586 111.27607541 36.12092324 121.1380491 36 131 C31.43499338 132.31523742 26.87780164 133.54952497 22.25 134.625 C21.14140625 134.88539063 20.0328125 135.14578125 18.890625 135.4140625 C16 136 16 136 13 136 C12.92363322 123.13750153 13.16143126 110.29515918 13.5 97.4375 C13.54837387 95.53971855 13.596552 93.6419321 13.64453125 91.74414062 C13.76041626 87.1626865 13.88028172 82.58136185 14 78 C5.585 78.99 5.585 78.99 -3 80 C-2.98839844 81.57523437 -2.97679688 83.15046875 -2.96484375 84.7734375 C-2.88674816 100.5414251 -3.26759758 116.24945214 -4 132 C-8.35306697 133.53323951 -12.67386307 134.66712207 -17.1875 135.625 C-18.39792969 135.88539063 -19.60835938 136.14578125 -20.85546875 136.4140625 C-24 137 -24 137 -27 137 C-27.14064473 121.36078709 -26.71491114 105.75445811 -26.1875 90.125 C-26.14498108 88.83726685 -26.10246216 87.54953369 -26.05865479 86.22277832 C-25.15359118 59.12261204 -23.68509704 32.06286114 -22 5 C-20.56217468 4.5137712 -19.12374338 4.02933413 -17.68505859 3.5456543 C-16.8840976 3.27569138 -16.0831366 3.00572845 -15.25790405 2.72758484 C-12.73505845 1.91462549 -10.2289071 1.3054727 -7.625 0.8125 C-6.81289062 0.65394531 -6.00078125 0.49539062 -5.1640625 0.33203125 C-3 0 -3 0 0 0 Z " fill="#AAECE9" transform="translate(109,118)"/>
<path d="M0 0 C0.76344727 0.40621582 1.52689453 0.81243164 2.31347656 1.23095703 C3.56837891 1.89417969 3.56837891 1.89417969 4.84863281 2.57080078 C5.7084375 3.03873047 6.56824219 3.50666016 7.45410156 3.98876953 C8.76701172 4.6790625 8.76701172 4.6790625 10.10644531 5.38330078 C16.56657676 8.83871993 16.56657676 8.83871993 17.70410156 11.11376953 C18.20657442 15.05675707 18.45916925 19.02630858 18.76660156 22.98876953 C18.90291992 24.61298828 18.90291992 24.61298828 19.04199219 26.27001953 C19.62101937 33.56663274 19.8155836 40.79559339 19.70410156 48.11376953 C17.18569341 48.79098853 14.66501432 49.45568127 12.14160156 50.11376953 C11.43712891 50.30455078 10.73265625 50.49533203 10.00683594 50.69189453 C5.43349947 51.87211039 1.42633791 52.31233926 -3.29589844 52.11376953 C-3.31048096 51.34186279 -3.32506348 50.56995605 -3.34008789 49.7746582 C-3.41447877 46.2830186 -3.51116934 42.79234464 -3.60839844 39.30126953 C-3.64223633 37.47885742 -3.64223633 37.47885742 -3.67675781 35.61962891 C-3.71220703 34.45625 -3.74765625 33.29287109 -3.78417969 32.09423828 C-3.81036377 31.02069092 -3.83654785 29.94714355 -3.86352539 28.84106445 C-4.08872556 26.11356792 -4.08872556 26.11356792 -5.61694336 24.25561523 C-8.99986994 21.95491033 -13.19025405 22.90467919 -17.02246094 23.62939453 C-17.77269531 23.78923828 -18.52292969 23.94908203 -19.29589844 24.11376953 C-19.28429687 25.17595703 -19.27269531 26.23814453 -19.26074219 27.33251953 C-19.25135349 28.75960109 -19.24225446 30.18668457 -19.23339844 31.61376953 C-19.22501953 32.30986328 -19.21664062 33.00595703 -19.20800781 33.72314453 C-19.20317383 34.76728516 -19.20317383 34.76728516 -19.19824219 35.83251953 C-19.19038696 36.77514648 -19.19038696 36.77514648 -19.18237305 37.73681641 C-19.29589844 40.11376953 -19.29589844 40.11376953 -19.79589844 43.38916016 C-20.68049719 50.21150558 -20.41818779 57.12208768 -20.39355469 63.98876953 C-20.3916868 65.52433221 -20.39026465 67.05989549 -20.38926697 68.59545898 C-20.385471 72.613278 -20.37566604 76.63106017 -20.36456299 80.64886475 C-20.3542857 84.75825502 -20.34975588 88.86765132 -20.34472656 92.97705078 C-20.33404082 101.0226405 -20.31699997 109.06820042 -20.29589844 117.11376953 C-18.77759952 117.33983416 -17.25598025 117.54362492 -15.73339844 117.73876953 C-14.46302734 117.91279297 -14.46302734 117.91279297 -13.16699219 118.09033203 C-9.54270678 118.25513684 -9.54270678 118.25513684 -3.29589844 116.11376953 C-2.96589844 109.51376953 -2.63589844 102.91376953 -2.29589844 96.11376953 C1.23097656 95.12376953 1.23097656 95.12376953 4.82910156 94.11376953 C5.92182373 93.80052734 5.92182373 93.80052734 7.03662109 93.48095703 C11.03086679 92.38895821 14.57165538 91.90779091 18.70410156 92.11376953 C18.99743425 118.09000864 18.99743425 118.09000864 14.70410156 124.11376953 C12.9677751 125.85815943 11.17102346 127.54377163 9.32910156 129.17626953 C7.9253125 130.43117187 7.9253125 130.43117187 6.49316406 131.71142578 C5.57277344 132.50419922 4.65238281 133.29697266 3.70410156 134.11376953 C2.8778125 134.86529297 2.05152344 135.61681641 1.20019531 136.39111328 C-5.54252726 141.04454154 -16.99767697 137.98670816 -24.67089844 136.67626953 C-34.9504959 134.67761693 -34.9504959 134.67761693 -38.73339844 129.86376953 C-39.63847097 128.30897409 -40.48557761 126.71998412 -41.29589844 125.11376953 C-41.89121872 124.28697693 -41.89121872 124.28697693 -42.49856567 123.44348145 C-46.29086334 118.09056073 -47.00274942 114.06827467 -46.85449219 107.59814453 C-46.85324844 106.68506027 -46.8520047 105.77197601 -46.85072327 104.83122253 C-46.83850444 101.84116323 -46.78807018 98.85333319 -46.73339844 95.86376953 C-46.70913301 93.77466766 -46.68570749 91.68555587 -46.66308594 89.59643555 C-46.5941009 84.18033513 -46.48398237 78.76580516 -46.36297607 73.35064697 C-46.29721247 70.17717889 -46.24911295 67.00393442 -46.20654297 63.83007812 C-46.13655284 58.84542634 -46.02265769 53.86364461 -45.87380981 48.8807373 C-45.82253571 47.01864186 -45.78289273 45.15618374 -45.75582886 43.2935791 C-45.52922614 29.50698842 -43.30472888 19.82814611 -33.76391602 9.3269043 C-30.64185427 6.52727133 -27.44533267 5.54951411 -23.48339844 4.48876953 C-22.05318155 4.0778472 -20.62348562 3.66510701 -19.19433594 3.25048828 C-18.51725586 3.0576123 -17.84017578 2.86473633 -17.14257812 2.66601562 C-14.91125985 1.99874408 -12.76404429 1.18087215 -10.60839844 0.30126953 C-6.65317011 -1.11664251 -3.9648218 -1.53044483 0 0 Z " fill="#ABECE9" transform="translate(55.2958984375,115.88623046875)"/>
<path d="M0 0 C-0.11613474 2.29213303 -0.24342049 4.58370169 -0.375 6.875 C-0.44460938 8.15117188 -0.51421875 9.42734375 -0.5859375 10.7421875 C-1.25330337 18.87884337 -3.14820514 26.14066853 -6.5 33.5625 C-6.87382812 34.41328125 -7.24765625 35.2640625 -7.6328125 36.140625 C-8.52963481 38.1791076 -9.43110734 40.21554751 -10.3359375 42.25048828 C-12.33281464 46.74238726 -14.30647311 51.24444555 -16.28125 55.74609375 C-17.05850661 57.51758065 -17.83576907 59.28906499 -18.61303711 61.06054688 C-19.202043 62.40306519 -19.202043 62.40306519 -19.802948 63.77270508 C-20.99738509 66.49404234 -22.19296806 69.21487329 -23.38891602 71.93554688 C-27.43144382 81.13321423 -31.47231011 90.33115042 -35.4375 99.5625 C-35.93926758 100.72652344 -35.93926758 100.72652344 -36.45117188 101.9140625 C-38.43817588 106.56306125 -40.25459576 111.25484902 -42 116 C-37.55250947 115.30663157 -33.10508333 114.6128519 -28.65771484 113.91870117 C-27.14666452 113.68291268 -25.63559705 113.44723399 -24.12451172 113.21166992 C-21.94494111 112.8718753 -19.76543368 112.53167788 -17.5859375 112.19140625 C-16.91694427 112.08719864 -16.24795105 111.98299103 -15.5586853 111.87562561 C-11.70183903 111.27302182 -7.84939044 110.6485103 -4 110 C-4.28602871 112.47992974 -4.57870489 114.95879239 -4.875 117.4375 C-4.95363281 118.12521484 -5.03226562 118.81292969 -5.11328125 119.52148438 C-5.7476841 124.76750794 -6.77383174 129.86137707 -8 135 C-20.72574414 136.48598751 -33.46214548 137.39820815 -46.25 138.125 C-47.40128891 138.19143707 -47.40128891 138.19143707 -48.57583618 138.25921631 C-50.8056044 138.3868765 -53.03554715 138.51069073 -55.265625 138.6328125 C-56.56274414 138.70387207 -57.85986328 138.77493164 -59.19628906 138.84814453 C-63.13921775 139.00555799 -67.05459017 139.02574761 -71 139 C-70.91894425 123.86283936 -65.41735971 111.1885434 -59.42352295 97.5716095 C-56.62189712 91.19461855 -54.05222605 84.73041367 -51.5 78.25 C-49.14729906 72.2893461 -46.74907181 66.37462051 -44.11621094 60.53222656 C-41.59695939 54.81707409 -39.25528891 49.02411089 -36.875 43.25 C-36.33213453 41.93615524 -35.78916644 40.62235287 -35.24609375 39.30859375 C-32.0896078 31.66790958 -32.0896078 31.66790958 -29 24 C-29.62865967 24.11593506 -30.25731934 24.23187012 -30.9050293 24.35131836 C-53.99644479 28.57759865 -53.99644479 28.57759865 -65 29 C-65.30790019 23.14989637 -64.69730901 17.88316297 -63.48828125 12.16015625 C-63.27492126 11.12381042 -63.27492126 11.12381042 -63.05725098 10.06652832 C-62.70879861 8.37686309 -62.35494975 6.68831227 -62 5 C-55.0998297 4.27932533 -48.19870895 3.56833175 -41.296875 2.86376953 C-38.95355139 2.62343692 -36.61044624 2.38096361 -34.26757812 2.13623047 C-30.88207573 1.78297319 -27.4958384 1.43765794 -24.109375 1.09375 C-23.07762146 0.9843811 -22.04586792 0.87501221 -20.98284912 0.7623291 C-13.96725625 0.06013402 -7.04867463 -0.12323884 0 0 Z " fill="#AAECE9" transform="translate(372,116)"/>
<path d="M0 0 C-1.14716143 16.76011095 -5.43124379 30.8742644 -12.22891235 46.24060059 C-13.67863127 49.51781984 -15.11134692 52.80248396 -16.546875 56.0859375 C-16.83782547 56.75008667 -17.12877594 57.41423584 -17.42854309 58.09851074 C-20.2833009 64.62372839 -23.0535353 71.18376184 -25.8125 77.75 C-29.27527626 85.98908399 -32.7999794 94.19203707 -36.5402832 102.30957031 C-38.43532844 106.48062084 -39.84363814 110.56440301 -41 115 C-37.74964719 114.5441467 -34.49973332 114.08524852 -31.25 113.625 C-30.2902124 113.48924561 -29.3304248 113.35349121 -28.34155273 113.21362305 C-22.36403825 112.36041321 -16.41028896 111.43358302 -10.47265625 110.33203125 C-7.62693751 109.94990472 -4.86783681 109.94573235 -2 110 C-2.71378027 118.13709505 -4.32773882 126.01731928 -6 134 C-19.62077247 135.52337587 -33.27209457 136.59811189 -46.9375 137.625 C-48.28739014 137.7273143 -48.28739014 137.7273143 -49.66455078 137.83169556 C-52.26448141 138.02813936 -54.86461032 138.22167227 -57.46484375 138.4140625 C-58.64354286 138.50298515 -58.64354286 138.50298515 -59.84605408 138.59370422 C-63.5718069 138.86521688 -67.26386966 139.06957412 -71 139 C-70.34156531 123.16464574 -64.80555838 109.44497066 -58.4375 95.1875 C-57.71743799 93.55327605 -56.99862221 91.91850248 -56.28100586 90.28320312 C-55.20294343 87.82703707 -54.12414298 85.37123055 -53.04121399 82.91720581 C-49.97745311 75.97402962 -47.00191595 68.99682632 -44.0625 62 C-41.52290151 55.96069357 -38.97604338 49.92606412 -36.36328125 43.91796875 C-35.94361084 42.95052734 -35.52394043 41.98308594 -35.09155273 40.98632812 C-34.30746205 39.18243175 -33.51950461 37.38020875 -32.72680664 35.58007812 C-32.38125732 34.78408203 -32.03570801 33.98808594 -31.6796875 33.16796875 C-31.37788574 32.47985107 -31.07608398 31.7917334 -30.76513672 31.08276367 C-29.90716751 28.74730249 -29.43162791 26.44704746 -29 24 C-29.77601563 24.15146484 -30.55203125 24.30292969 -31.3515625 24.45898438 C-34.89960238 25.14699927 -38.44973134 25.82358424 -42 26.5 C-43.22074219 26.73847656 -44.44148438 26.97695312 -45.69921875 27.22265625 C-51.90128744 28.3960206 -57.68614148 29.31569293 -64 29 C-64.1754368 23.49567039 -63.5274161 18.46337653 -62.5 13.0625 C-62.28537109 11.89364258 -62.28537109 11.89364258 -62.06640625 10.70117188 C-61.71645276 8.7997579 -61.35900335 6.89972607 -61 5 C-54.24228166 4.27914581 -47.48357324 3.56817862 -40.72412109 2.86376953 C-38.42929066 2.62348159 -36.13468772 2.38100993 -33.84033203 2.13623047 C-30.52435169 1.78285283 -27.20760677 1.43758538 -23.890625 1.09375 C-22.88074524 0.9843811 -21.87086548 0.87501221 -20.8303833 0.7623291 C-13.86586651 0.05100692 -6.99856545 -0.12193634 0 0 Z " fill="#AAECE9" transform="translate(442,116)"/>
<path d="M0 0 C0.18208839 5.65232708 -0.50579187 10.87978699 -1.5 16.4375 C-1.64308594 17.26443359 -1.78617187 18.09136719 -1.93359375 18.94335938 C-2.28384663 20.96315101 -2.64119296 22.98171042 -3 25 C-4.13179688 25.13277344 -5.26359375 25.26554687 -6.4296875 25.40234375 C-7.91148179 25.5805342 -9.39325136 25.75893029 -10.875 25.9375 C-11.62136719 26.02451172 -12.36773437 26.11152344 -13.13671875 26.20117188 C-17.1953231 26.63326063 -17.1953231 26.63326063 -21 28 C-21.45579861 30.20670889 -21.45579861 30.20670889 -21.59375 32.86523438 C-21.66722656 33.86578857 -21.74070312 34.86634277 -21.81640625 35.8972168 C-22.09758123 40.64914882 -22.32561191 45.3992036 -22.5 50.15625 C-22.54033356 51.20190628 -22.58066711 52.24756256 -22.6222229 53.3249054 C-22.751606 56.71648363 -22.87613928 60.10821591 -23 63.5 C-23.06486603 65.2371376 -23.06486603 65.2371376 -23.13104248 67.0093689 C-23.97494816 89.66833385 -24.56167156 112.32986687 -25 135 C-27.19960011 135.4898301 -29.4003519 135.97449001 -31.6015625 136.45703125 C-32.82697754 136.72749268 -34.05239258 136.9979541 -35.31494141 137.27661133 C-40.19320639 138.23423019 -45.04215491 138.70657652 -50 139 C-50.09906166 127.5898262 -49.92680385 116.25489277 -49.25921631 104.86404419 C-48.243068 87.43911083 -47.53026677 70.00422987 -46.875 52.5625 C-46.83070862 51.38615997 -46.78641724 50.20981995 -46.74078369 48.99783325 C-46.49043248 42.33201349 -46.24328461 35.66608138 -46 29 C-47.72657837 29.21438721 -47.72657837 29.21438721 -49.48803711 29.43310547 C-51.02195166 29.61963886 -52.5558884 29.80598986 -54.08984375 29.9921875 C-54.84567749 30.08653076 -55.60151123 30.18087402 -56.38024902 30.27807617 C-62.2727998 30.98779198 -68.06401481 31.23077264 -74 31 C-74.14462504 22.98134509 -73.98687492 14.96810124 -73 7 C-71.05689596 5.05689596 -67.53539297 5.35793242 -64.875 5.0625 C-64.12436279 4.97677734 -63.37372559 4.89105469 -62.6003418 4.80273438 C-54.39516578 3.89132534 -46.17161732 3.19657392 -37.9453125 2.5078125 C-33.95831993 2.1728263 -29.97484596 1.81276029 -25.9921875 1.4296875 C-24.53075317 1.29046875 -24.53075317 1.29046875 -23.03979492 1.1484375 C-21.2036651 0.97241547 -19.36785598 0.79299791 -17.5324707 0.609375 C-11.67153658 0.05316658 -5.88594991 -0.09897634 0 0 Z " fill="#AAEDE9" transform="translate(301,116)"/>
<path d="M0 0 C0.66 0 1.32 0 2 0 C2.70352749 5.47162208 3.3966908 10.94443551 4.08129883 16.41845703 C4.31430433 18.27068309 4.54987762 20.12258839 4.78833008 21.97412109 C6.4609836 34.98050516 7.53294174 47.89400836 8 61 C2.35792973 62.45067465 -2.17260234 63.20812134 -8 63 C-7.34159516 53.21017217 -6.31610684 43.48605824 -5.125 33.75 C-5.03762573 33.0285379 -4.95025146 32.30707581 -4.86022949 31.56375122 C-3.5734139 20.97776954 -2.10769341 10.45863019 0 0 Z M1 54 C2 56 2 56 2 56 Z " fill="#52BBBD" transform="translate(190,137)"/>
<path d="M0 0 C0.66 0 1.32 0 2 0 C2.37125 0.969375 2.7425 1.93875 3.125 2.9375 C4.68184932 6.17341727 4.68184932 6.17341727 7.5625 7 C13.2390464 7 18.62751405 5.79082865 24 4 C25.56118428 3.93259135 27.1250252 3.91485544 28.6875 3.9375 C29.89986328 3.95103516 29.89986328 3.95103516 31.13671875 3.96484375 C32.05904297 3.98224609 32.05904297 3.98224609 33 4 C33.495 6.475 33.495 6.475 34 9 C34.66 8.67 35.32 8.34 36 8 C36.63149942 18.67910627 37.17291697 29.2983611 37 40 C36.67 40 36.34 40 36 40 C35.505 36.535 35.505 36.535 35 33 C34.54625 33.495 34.0925 33.99 33.625 34.5 C32 36 32 36 30 36 C30 36.66 30 37.32 30 38 C22.74 38 15.48 38 8 38 C11.38249172 36.30875414 14.19271255 35.26507565 17.8125 34.3125 C18.80894531 34.04050781 19.80539063 33.76851562 20.83203125 33.48828125 C24.4531571 32.93015458 27.41489656 33.32976109 31 34 C30.99214478 33.04746338 30.99214478 33.04746338 30.98413086 32.07568359 C30.96323744 29.17546595 30.95030066 26.2752642 30.9375 23.375 C30.92912109 22.37597656 30.92074219 21.37695312 30.91210938 20.34765625 C30.8958913 15.44979725 30.95681463 10.81343801 32 6 C31.29915283 6.13688232 30.59830566 6.27376465 29.8762207 6.41479492 C26.69171879 7.02534444 23.50254828 7.60665836 20.3125 8.1875 C18.65831055 8.51137695 18.65831055 8.51137695 16.97070312 8.84179688 C15.90400391 9.03193359 14.83730469 9.22207031 13.73828125 9.41796875 C12.75899658 9.60125732 11.77971191 9.7845459 10.77075195 9.97338867 C6.63020639 10.01315601 4.32997796 8.0548101 1.1875 5.5625 C0 4 0 4 0 0 Z " fill="#58C1C5" transform="translate(47,168)"/>
<path d="M0 0 C0.33 0 0.66 0 1 0 C1.02785893 2.93756923 1.04723385 5.87485658 1.0625 8.8125 C1.07087891 9.60720703 1.07925781 10.40191406 1.08789062 11.22070312 C1.10995261 16.97888085 0.86102349 22.69876485 0.51953125 28.4453125 C0.05227264 36.49617684 -0.12256645 44.53425608 -0.2109375 52.59765625 C-0.22522293 53.77550186 -0.23950836 54.95334747 -0.25422668 56.16688538 C-0.31208516 61.05173487 -0.36710152 65.93645431 -0.40136719 70.8215332 C-0.42876287 74.43469349 -0.47452126 78.04723216 -0.5234375 81.66015625 C-0.52669037 82.77141373 -0.52994324 83.8826712 -0.53329468 85.02760315 C-0.54986115 86.04724655 -0.56642761 87.06688995 -0.58349609 88.11743164 C-0.59158295 89.01498672 -0.5996698 89.91254181 -0.60800171 90.83729553 C-0.73736115 91.55098801 -0.86672058 92.26468048 -1 93 C-4.03525486 95.02350324 -5.19426202 95.32124018 -8.6875 95.625 C-9.89986328 95.73714844 -9.89986328 95.73714844 -11.13671875 95.8515625 C-11.75160156 95.90054688 -12.36648438 95.94953125 -13 96 C-12.505 95.01 -12.505 95.01 -12 94 C-9.67284 93.62599214 -7.33882138 93.29235267 -5 93 C-3.35561005 91.35561005 -3.84177111 89.44327049 -3.81054688 87.17651367 C-3.79382935 86.14842087 -3.77711182 85.12032806 -3.7598877 84.06108093 C-3.74631226 82.94135391 -3.73273682 81.82162689 -3.71875 80.66796875 C-3.70034058 79.52467606 -3.68193115 78.38138336 -3.66296387 77.20344543 C-3.60399895 73.53151779 -3.55129689 69.85954231 -3.5 66.1875 C-3.43238776 61.3683901 -3.35865113 56.54943019 -3.28125 51.73046875 C-3.26767456 50.61681442 -3.25409912 49.5031601 -3.2401123 48.35575867 C-3.22339478 47.31820938 -3.20667725 46.2806601 -3.18945312 45.21166992 C-3.17692505 44.29979416 -3.16439697 43.3879184 -3.15148926 42.44841003 C-3.00968878 40.15659273 -2.58308832 38.21076384 -2 36 C-1.8613965 33.40761452 -1.76787731 30.83613124 -1.71875 28.2421875 C-1.70034058 27.49792511 -1.68193115 26.75366272 -1.66296387 25.98684692 C-1.58447395 22.81054682 -1.51640433 19.63404524 -1.44775391 16.45751953 C-1.39607216 14.13563433 -1.33882669 11.81393278 -1.28125 9.4921875 C-1.26767456 8.77134979 -1.25409912 8.05051208 -1.2401123 7.30783081 C-1.11285822 2.22571643 -1.11285822 2.22571643 0 0 Z " fill="#67BBBF" transform="translate(286,165)"/>
<path d="M0 0 C0 0.66 0 1.32 0 2 C-0.74765625 2.25394531 -1.4953125 2.50789063 -2.265625 2.76953125 C-3.25046875 3.11371094 -4.2353125 3.45789063 -5.25 3.8125 C-6.22453125 4.14894531 -7.1990625 4.48539062 -8.203125 4.83203125 C-10.90080114 5.95857478 -12.87768914 6.99391092 -15 9 C-15 9.99 -15 10.98 -15 12 C-15.99 12 -16.98 12 -18 12 C-17.87625 13.36125 -17.87625 13.36125 -17.75 14.75 C-18 18 -18 18 -20 20.375 C-20.66 20.91125 -21.32 21.4475 -22 22 C-20.68 22.66 -19.36 23.32 -18 24 C-18.66 24.99 -19.32 25.98 -20 27 C-20.30066154 29.75417318 -20.50925299 32.42645147 -20.625 35.1875 C-20.66367187 35.93708984 -20.70234375 36.68667969 -20.7421875 37.45898438 C-20.83628216 39.30559199 -20.91922319 41.1527619 -21 43 C-21.33 43 -21.66 43 -22 43 C-22.495 35.575 -22.495 35.575 -23 28 C-23.66 28 -24.32 28 -25 28 C-24.98839844 29.14339844 -24.97679687 30.28679687 -24.96484375 31.46484375 C-24.95546712 32.95572754 -24.94636679 34.44661309 -24.9375 35.9375 C-24.92912109 36.69224609 -24.92074219 37.44699219 -24.91210938 38.22460938 C-24.90347559 40.14994313 -24.94775667 42.07535581 -25 44 C-25.495 44.495 -25.495 44.495 -26 45 C-26.15764405 46.77869726 -26.25100677 48.56318476 -26.31640625 50.34765625 C-26.35830078 51.42724609 -26.40019531 52.50683594 -26.44335938 53.61914062 C-26.48267578 54.75544922 -26.52199219 55.89175781 -26.5625 57.0625 C-26.60568359 58.20267578 -26.64886719 59.34285156 -26.69335938 60.51757812 C-26.79982839 63.34492195 -26.90184207 66.17235738 -27 69 C-27.33 69 -27.66 69 -28 69 C-28.05628033 61.11036328 -28.05813208 53.22269876 -28.0078125 45.33300781 C-28.00148433 42.63325291 -28.03578953 39.94097206 -28.09375 37.2421875 C-27.99815022 25.41171454 -23.22611125 15.08737438 -15.55859375 6.15625 C-12.8484568 3.87228726 -10.66127231 2.79766599 -7.3125 1.6875 C-6.35988281 1.36136719 -5.40726563 1.03523438 -4.42578125 0.69921875 C-2 0 -2 0 0 0 Z " fill="#60B9BD" transform="translate(32,115)"/>
<path d="M0 0 C0.33 0 0.66 0 1 0 C1.01030746 0.67572052 1.02061493 1.35144104 1.03123474 2.04763794 C1.13951589 9.08816786 1.25409601 16.12857539 1.37231445 23.16894531 C1.41559405 25.79554684 1.45727401 28.42217523 1.49731445 31.04882812 C1.55518591 34.82690524 1.61883196 38.60484798 1.68359375 42.3828125 C1.70030624 43.55490265 1.71701874 44.7269928 1.73423767 45.93460083 C1.7641555 47.58563309 1.7641555 47.58563309 1.79467773 49.27001953 C1.81022202 50.23376495 1.8257663 51.19751038 1.84178162 52.19046021 C2.01037295 55.18419611 2.45659128 58.05313062 3 61 C3.66 59.02 4.32 57.04 5 55 C5.33 55 5.66 55 6 55 C6.125 58.375 6.125 58.375 6 62 C3.8614515 64.1385485 2.86724686 64.42655063 0 65 C-1.23844016 54.45492182 -1.15256804 43.90970898 -1.13037109 33.30810547 C-1.12498791 30.24311432 -1.13035478 27.17826809 -1.13671875 24.11328125 C-1.13605829 22.14322885 -1.13477779 20.17317653 -1.1328125 18.203125 C-1.13483673 17.29773987 -1.13686096 16.39235474 -1.13894653 15.45953369 C-1.11976558 10.21669953 -0.75882531 5.18894844 0 0 Z " fill="#77C2C8" transform="translate(42,166)"/>
<path d="M0 0 C2.50073847 2.64363781 2.77026844 3.76845936 3.1875 7.3125 C2.93383789 9.80786133 2.93383789 9.80786133 2.41015625 12.39453125 C2.22646484 13.32587891 2.04277344 14.25722656 1.85351562 15.21679688 C1.65435547 16.17650391 1.45519531 17.13621094 1.25 18.125 C1.05470703 19.10404297 0.85941406 20.08308594 0.65820312 21.09179688 C0.17645351 23.50054496 -0.31402341 25.90716777 -0.8125 28.3125 C-1.1425 28.3125 -1.4725 28.3125 -1.8125 28.3125 C-2.80334139 22.01931821 -2.75259984 16.85332686 -1.29296875 10.65234375 C-0.63861083 7.46567387 -0.6715753 4.55376817 -0.8125 1.3125 C-4.8225934 1.13385369 -4.8225934 1.13385369 -8.8125 1.3125 C-9.4725 1.9725 -10.1325 2.6325 -10.8125 3.3125 C-12.15748268 3.02981559 -13.48953821 2.68487211 -14.8125 2.3125 C-16.72811254 2.24561409 -18.64585592 2.22718281 -20.5625 2.25 C-21.54734375 2.25902344 -22.5321875 2.26804688 -23.546875 2.27734375 C-24.66835938 2.29474609 -24.66835938 2.29474609 -25.8125 2.3125 C-25.8125 1.9825 -25.8125 1.6525 -25.8125 1.3125 C-23.10523634 0.8060186 -20.39692876 0.307149 -17.6875 -0.1875 C-16.54667969 -0.40212891 -16.54667969 -0.40212891 -15.3828125 -0.62109375 C-4.36077194 -2.61646316 -4.36077194 -2.61646316 0 0 Z " fill="#6BBBBE" transform="translate(446.8125,220.6875)"/>
<path d="M0 0 C0.33 0 0.66 0 1 0 C1.13487595 2.77245014 1.23400807 5.53837088 1.3125 8.3125 C1.35439453 9.09818359 1.39628906 9.88386719 1.43945312 10.69335938 C1.48617528 12.88930045 1.4417358 14.84807876 1 17 C-2.69568905 20.63608116 -8.35752554 21.19650511 -13.3125 22.1875 C-14.53743164 22.45336914 -14.53743164 22.45336914 -15.78710938 22.72460938 C-20.96022868 23.7922093 -25.72028593 24.17619299 -31 24 C-26.0523795 21.11388804 -20.66834163 20 -15 20 C-14.67 19.34 -14.34 18.68 -14 18 C-13.39671875 18.01160156 -12.7934375 18.02320313 -12.171875 18.03515625 C-11.37265625 18.04417969 -10.5734375 18.05320312 -9.75 18.0625 C-8.96109375 18.07410156 -8.1721875 18.08570313 -7.359375 18.09765625 C-5.09308998 18.00385306 -3.1711105 17.63241063 -1 17 C-1.01160156 15.85660156 -1.02320312 14.71320313 -1.03515625 13.53515625 C-1.04453288 12.04427246 -1.05363321 10.55338691 -1.0625 9.0625 C-1.07087891 8.30775391 -1.07925781 7.55300781 -1.08789062 6.77539062 C-1.09652441 4.85005687 -1.05224333 2.92464419 -1 1 C-0.67 0.67 -0.34 0.34 0 0 Z " fill="#67B5BB" transform="translate(112,240)"/>
<path d="M0 0 C0.33 0 0.66 0 1 0 C1.33 14.19 1.66 28.38 2 43 C5.99110319 44.9955516 7.69986566 45.19546065 12 45 C12.33 45.66 12.66 46.32 13 47 C11.60696395 47.13657216 10.20993879 47.23271149 8.8125 47.3125 C8.03519531 47.37050781 7.25789062 47.42851562 6.45703125 47.48828125 C2.55285301 46.71241117 1.28540086 45.23329999 -1 42 C-1.64508025 38.44110879 -1.51487598 34.97888089 -1.375 31.375 C-1.35501953 30.36622803 -1.33503906 29.35745605 -1.31445312 28.31811523 C-1.24225658 25.21000539 -1.12915928 22.10623144 -1 19 C-0.96036133 18.03239746 -0.92072266 17.06479492 -0.87988281 16.06787109 C-0.64670264 10.70752539 -0.34984917 5.35394173 0 0 Z " fill="#79BABC" transform="translate(246,217)"/>
<path d="M0 0 C0.66 0.66 1.32 1.32 2 2 C1.72968349 4.00948752 1.38391151 6.00908989 1 8 C0.88953447 10.30615043 0.82471527 12.61474066 0.79467773 14.92333984 C0.78477814 15.5874588 0.77487854 16.25157776 0.76467896 16.93582153 C0.73332413 19.11082507 0.70841058 21.28585039 0.68359375 23.4609375 C0.66300169 24.97694435 0.64200465 26.49294576 0.62062073 28.00894165 C0.56563249 31.98398401 0.51612148 35.95907617 0.46777344 39.9342041 C0.41738781 43.99654532 0.36179112 48.05881492 0.30664062 52.12109375 C0.19934375 60.08066846 0.09783652 68.04030341 0 76 C-0.33 76 -0.66 76 -1 76 C-1.0231687 66.68145282 -1.04093822 57.36291555 -1.05181217 48.04434586 C-1.05703107 43.71737908 -1.06411074 39.390432 -1.07543945 35.06347656 C-1.08630355 30.88785356 -1.09228433 26.71224951 -1.09487724 22.53661346 C-1.09672513 20.94341483 -1.10033355 19.35021724 -1.10573006 17.75702667 C-1.1129872 15.52582048 -1.11398896 13.29469266 -1.11352539 11.06347656 C-1.115746 9.79328674 -1.11796661 8.52309692 -1.12025452 7.2144165 C-1.02219149 4.59318089 -0.78514431 2.48257561 0 0 Z " fill="#4FB3B5" transform="translate(146,172)"/>
<path d="M0 0 C0.66 0 1.32 0 2 0 C1.99476318 0.65073486 1.98952637 1.30146973 1.98413086 1.97192383 C1.96335062 4.91877274 1.9503365 7.86560623 1.9375 10.8125 C1.92912109 11.83666016 1.92074219 12.86082031 1.91210938 13.91601562 C1.90888672 14.89892578 1.90566406 15.88183594 1.90234375 16.89453125 C1.89710693 17.80050049 1.89187012 18.70646973 1.88647461 19.63989258 C1.90079019 22.15284039 1.90079019 22.15284039 3 25 C6.5677714 27.71150626 10.7299674 27.29019639 15 27 C17.00109278 26.67329097 19.00116131 26.34022786 21 26 C23.33302989 25.96237049 25.66713319 25.95334266 28 26 C28 26.33 28 26.66 28 27 C25.48056604 27.50812114 22.95983127 28.00664534 20.4375 28.5 C19.38079102 28.71462891 19.38079102 28.71462891 18.30273438 28.93359375 C6.94401324 31.1320559 6.94401324 31.1320559 2.08203125 28.30078125 C-1.17134796 23.14298494 -0.52943946 18.14499144 -0.3125 12.1875 C-0.28994141 11.01767578 -0.26738281 9.84785156 -0.24414062 8.64257812 C-0.18532091 5.76041231 -0.10317141 2.88086319 0 0 Z " fill="#6DB9BD" transform="translate(116,233)"/>
<path d="M0 0 C1.38092672 4.36929699 0.15513507 6.43830003 -1.8125 10.5625 C-7.00200819 22.05674019 -7.27960877 32.61954489 -7 45 C-10 43 -10 43 -10.70483398 41.11523438 C-12.63423232 27.2886776 -5.47807233 12.23948973 0 0 Z " fill="#76BFC0" transform="translate(305,217)"/>
<path d="M0 0 C2 1 2 1 2.71020508 2.79418945 C3.05640779 5.42935503 2.60521767 6.8298087 1.63671875 9.29296875 C1.32669922 10.08767578 1.01667969 10.88238281 0.69726562 11.70117188 C0.36404297 12.52166016 0.03082031 13.34214844 -0.3125 14.1875 C-0.63412109 15.01958984 -0.95574219 15.85167969 -1.28710938 16.70898438 C-3.73056209 22.86528104 -3.73056209 22.86528104 -6 24 C-6.33 22.02 -6.66 20.04 -7 18 C-6.34 17.67 -5.68 17.34 -5 17 C-4.60914534 14.90491777 -4.60914534 14.90491777 -4.5 12.5 C-4.34375 10.03125 -4.34375 10.03125 -4 8 C-3.34 7.67 -2.68 7.34 -2 7 C-1.26924352 4.6859378 -0.59861742 2.35171131 0 0 Z " fill="#53BABD" transform="translate(322,180)"/>
<path d="M0 0 C0 1.33333333 0 2.66666667 0 4 C-2.31 4.33 -4.62 4.66 -7 5 C-6.67 5.66 -6.34 6.32 -6 7 C-6.66 7.66 -7.32 8.32 -8 9 C-10.1640625 8.9765625 -10.1640625 8.9765625 -12.625 8.625 C-13.85089844 8.45871094 -13.85089844 8.45871094 -15.1015625 8.2890625 C-16.04128906 8.14597656 -16.04128906 8.14597656 -17 8 C-17 5 -17 5 -16 3 C-13.30202898 2.36139231 -10.66633377 1.83174758 -7.9375 1.375 C-7.17888672 1.2409375 -6.42027344 1.106875 -5.63867188 0.96875 C-3.76047742 0.63799878 -1.88039662 0.31799266 0 0 Z " fill="#53C0C4" transform="translate(370,219)"/>
<path d="M0 0 C0.66 0 1.32 0 2 0 C2.37125 0.969375 2.7425 1.93875 3.125 2.9375 C4.68184932 6.17341727 4.68184932 6.17341727 7.5625 7 C13.2390464 7 18.62751405 5.79082865 24 4 C25.56118428 3.93259135 27.1250252 3.91485544 28.6875 3.9375 C29.89986328 3.95103516 29.89986328 3.95103516 31.13671875 3.96484375 C32.05904297 3.98224609 32.05904297 3.98224609 33 4 C33 6.64 33 9.28 33 12 C32.67 12 32.34 12 32 12 C32 10.02 32 8.04 32 6 C31.29915283 6.13688232 30.59830566 6.27376465 29.8762207 6.41479492 C26.69171879 7.02534444 23.50254828 7.60665836 20.3125 8.1875 C18.65831055 8.51137695 18.65831055 8.51137695 16.97070312 8.84179688 C15.90400391 9.03193359 14.83730469 9.22207031 13.73828125 9.41796875 C12.75899658 9.60125732 11.77971191 9.7845459 10.77075195 9.97338867 C6.63020639 10.01315601 4.32997796 8.0548101 1.1875 5.5625 C0 4 0 4 0 0 Z " fill="#69BAC3" transform="translate(47,168)"/>
<path d="M0 0 C1.61105622 4.04323141 0.37707837 7.66118602 -0.6875 11.6875 C-0.86958008 12.39777344 -1.05166016 13.10804688 -1.23925781 13.83984375 C-2.658857 19.17734188 -4.52546827 24.05093654 -7 29 C-7.33 29 -7.66 29 -8 29 C-8 26.36 -8 23.72 -8 21 C-7.34 21 -6.68 21 -6 21 C-5.87625 19.72125 -5.7525 18.4425 -5.625 17.125 C-5.25 13.25 -5.25 13.25 -3 11 C-2.61984012 8.4036808 -2.49404686 5.8337665 -2.34375 3.21484375 C-2.2303125 2.48394531 -2.116875 1.75304687 -2 1 C-1.34 0.67 -0.68 0.34 0 0 Z " fill="#66B9BB" transform="translate(449,129)"/>
<path d="M0 0 C0.33 0 0.66 0 1 0 C1.07587748 7.08407758 1.12852671 14.16805094 1.16479492 21.25244141 C1.17990945 23.66393957 1.20040153 26.07541014 1.22631836 28.48681641 C1.26258425 31.94700928 1.27969956 35.40683971 1.29296875 38.8671875 C1.30845261 39.95055389 1.32393646 41.03392029 1.33988953 42.15011597 C1.34022942 43.65144577 1.34022942 43.65144577 1.34057617 45.18310547 C1.34723801 46.06690887 1.35389984 46.95071228 1.36076355 47.86129761 C1.24171158 48.5670694 1.12265961 49.27284119 1 50 C-2.03525486 52.02350324 -3.19426202 52.32124018 -6.6875 52.625 C-7.49574219 52.69976562 -8.30398438 52.77453125 -9.13671875 52.8515625 C-9.75160156 52.90054688 -10.36648438 52.94953125 -11 53 C-10.67 52.34 -10.34 51.68 -10 51 C-7.66752239 50.66073053 -5.33414529 50.32759934 -3 50 C-0.52781178 47.52781178 -0.73467599 46.77437125 -0.68115234 43.36669922 C-0.66128265 42.40585419 -0.64141296 41.44500916 -0.62094116 40.45504761 C-0.60938995 39.41542877 -0.59783875 38.37580994 -0.5859375 37.3046875 C-0.56657135 36.24210724 -0.5472052 35.17952698 -0.5272522 34.08474731 C-0.46733916 30.68158057 -0.42102402 27.27838022 -0.375 23.875 C-0.33683103 21.5715996 -0.29777995 19.26821364 -0.2578125 16.96484375 C-0.16162813 11.31002372 -0.07661519 5.65511717 0 0 Z " fill="#70B4B6" transform="translate(284,208)"/>
<path d="M0 0 C-0.33 0.99 -0.66 1.98 -1 3 C0.32 3.33 1.64 3.66 3 4 C-0.99795892 4.95619733 -4.70803922 5.1039592 -8.8125 5.0625 C-9.97394531 5.05347656 -11.13539063 5.04445313 -12.33203125 5.03515625 C-13.21246094 5.02355469 -14.09289062 5.01195313 -15 5 C-15.33 4.34 -15.66 3.68 -16 3 C-10.62669111 -0.39366878 -6.13053511 -0.32712342 0 0 Z " fill="#51BBBF" transform="translate(186,115)"/>
<path d="M0 0 C-0.639375 0.103125 -1.27875 0.20625 -1.9375 0.3125 C-2.618125 0.539375 -3.29875 0.76625 -4 1 C-4.33 1.99 -4.66 2.98 -5 4 C-7.26786642 4.27561917 -9.53958279 4.51971457 -11.8125 4.75 C-13.70935547 4.95882812 -13.70935547 4.95882812 -15.64453125 5.171875 C-19 5 -19 5 -20.94921875 3.015625 C-21.29597656 2.35046875 -21.64273437 1.6853125 -22 1 C-14.65623924 0.42240084 -7.36901413 -0.14738028 0 0 Z " fill="#54BEC3" transform="translate(360,112)"/>
<path d="M0 0 C0.33 0.66 0.66 1.32 1 2 C0.24434474 4.13943613 -0.61888259 6.24115398 -1.52734375 8.3203125 C-1.79511124 8.93897186 -2.06287872 9.55763123 -2.33876038 10.19503784 C-3.19771364 12.17495926 -4.0674454 14.1499353 -4.9375 16.125 C-5.52089705 17.46453268 -6.10358859 18.80437287 -6.68554688 20.14453125 C-8.11552122 23.43329819 -9.55520086 26.71771433 -11 30 C-12.14147825 26.57556524 -11.86817488 26.09255845 -10.5 22.9375 C-9.58292479 20.90649059 -9.58292479 20.90649059 -9 19 C-9.33 18.34 -9.66 17.68 -10 17 C-9.34 17 -8.68 17 -8 17 C-8.061875 16.2575 -8.12375 15.515 -8.1875 14.75 C-7.96760006 11.52480092 -7.21747812 10.30276574 -5 8 C-4.34 8 -3.68 8 -3 8 C-2.87625 7.05125 -2.7525 6.1025 -2.625 5.125 C-2 2 -2 2 0 0 Z " fill="#68BABC" transform="translate(428,187)"/>
<path d="M0 0 C-0.33 1.32 -0.66 2.64 -1 4 C-8.26 4 -15.52 4 -23 4 C-15.74048944 0.37024472 -8.02309776 -2.00577444 0 0 Z " fill="#64BEC0" transform="translate(78,202)"/>
<path d="M0 0 C-0.61875 0.268125 -1.2375 0.53625 -1.875 0.8125 C-4.2995233 1.95556848 -4.2995233 1.95556848 -6 5 C-3.69 5 -1.38 5 1 5 C1 5.33 1 5.66 1 6 C0.33613281 6.12117188 -0.32773437 6.24234375 -1.01171875 6.3671875 C-5.5787818 7.23392939 -9.69311595 8.22657715 -14 10 C-15.32 10 -16.64 10 -18 10 C-18.33 9.01 -18.66 8.02 -19 7 C-17 7 -15 7 -13 7 C-12.01 6.34 -11.02 5.68 -10 5 C-11.44754255 3.55245745 -13.03962913 3.44266439 -15 3 C-9.89665983 1.094753 -5.53657294 -0.42589023 0 0 Z " fill="#5FB8BA" transform="translate(54,109)"/>
<path d="M0 0 C1.32 0.33 2.64 0.66 4 1 C3.34 1.66 2.68 2.32 2 3 C1.66965172 5.14052502 1.66965172 5.14052502 1.68115234 7.63330078 C1.66128265 8.59414581 1.64141296 9.55499084 1.62094116 10.54495239 C1.60938995 11.58457123 1.59783875 12.62419006 1.5859375 13.6953125 C1.56657135 14.75789276 1.5472052 15.82047302 1.5272522 16.91525269 C1.46733916 20.31841943 1.42102402 23.72161978 1.375 27.125 C1.33683103 29.4284004 1.29777995 31.73178636 1.2578125 34.03515625 C1.16162813 39.68997628 1.07661519 45.34488283 1 51 C0.67 51 0.34 51 0 51 C0 34.17 0 17.34 0 0 Z " fill="#4CB3B4" transform="translate(106,198)"/>
<path d="M0 0 C0.66 0.33 1.32 0.66 2 1 C-2.29 10.9 -6.58 20.8 -11 31 C-12.03103689 26.87585243 -11.94701684 26.0158858 -10.5625 22.25 C-10.27503906 21.45078125 -9.98757813 20.6515625 -9.69140625 19.828125 C-9.46324219 19.22484375 -9.23507812 18.6215625 -9 18 C-8.34 18 -7.68 18 -7 18 C-6.87882812 17.39671875 -6.75765625 16.7934375 -6.6328125 16.171875 C-6.38144531 14.97304687 -6.38144531 14.97304687 -6.125 13.75 C-5.96257812 12.96109375 -5.80015625 12.1721875 -5.6328125 11.359375 C-5.00849925 9.03168856 -4.15161458 7.10968048 -3 5 C-2.34 5 -1.68 5 -1 5 C-0.67 3.35 -0.34 1.7 0 0 Z " fill="#73BDBD" transform="translate(366,167)"/>
<path d="M0 0 C0 0.66 0 1.32 0 2 C-0.74765625 2.25394531 -1.4953125 2.50789063 -2.265625 2.76953125 C-3.25046875 3.11371094 -4.2353125 3.45789063 -5.25 3.8125 C-6.22453125 4.14894531 -7.1990625 4.48539062 -8.203125 4.83203125 C-10.90080114 5.95857478 -12.87768914 6.99391092 -15 9 C-15 9.99 -15 10.98 -15 12 C-15.99 12 -16.98 12 -18 12 C-18 13.98 -18 15.96 -18 18 C-18.99 18 -19.98 18 -21 18 C-21 12.76756812 -18.42999005 8.83963236 -15 5 C-10.49220043 2.53027224 -5.23825692 0 0 0 Z " fill="#73BBBE" transform="translate(32,115)"/>
<path d="M0 0 C0.33 0 0.66 0 1 0 C1.09377123 7.41834582 1.17402193 14.66236293 0 22 C0.99 22.33 1.98 22.66 3 23 C1.35 23 -0.3 23 -2 23 C-2.22397733 20.95999027 -2.42848537 18.91783811 -2.625 16.875 C-2.74101563 15.73804688 -2.85703125 14.60109375 -2.9765625 13.4296875 C-3.00128828 9.81148145 -2.30825198 7.34758595 -1 4 C-0.65023242 2.67088318 -0.30903983 1.33917261 0 0 Z " fill="#68BEC6" transform="translate(115,146)"/>
<path d="M0 0 C0.33 0 0.66 0 1 0 C1.66 5.61 2.32 11.22 3 17 C3.66 15.02 4.32 13.04 5 11 C5.33 11 5.66 11 6 11 C6.125 14.375 6.125 14.375 6 18 C3.8614515 20.1385485 2.86724686 20.42655063 0 21 C-0.7938642 13.78194245 -1.07875823 7.19172157 0 0 Z " fill="#69C6CA" transform="translate(42,210)"/>
<path d="M0 0 C0.33 0 0.66 0 1 0 C0.67 9.24 0.34 18.48 0 28 C-0.33 27.34 -0.66 26.68 -1 26 C-1.66 26 -2.32 26 -3 26 C-3.625 24.1875 -3.625 24.1875 -4 22 C-3.01 20.515 -3.01 20.515 -2 19 C-1.75818241 16.5858427 -1.75818241 16.5858427 -1.875 14 C-1.89304687 13.13375 -1.91109375 12.2675 -1.9296875 11.375 C-1.95289062 10.59125 -1.97609375 9.8075 -2 9 C-2 8.01 -2 7.02 -2 6 C-1.67 6 -1.34 6 -1 6 C-0.67 4.02 -0.34 2.04 0 0 Z " fill="#61B8BB" transform="translate(117,117)"/>
<path d="M0 0 C3.80332119 0 5.97347919 0.23643993 9.05859375 2.53125 C11.84246385 5.35432954 13.87087716 7.47869818 14.21484375 11.53125 C13.96453161 13.75938061 13.59498266 15.84006295 13 18 C12.67 18 12.34 18 12 18 C11.67 15.36 11.34 12.72 11 10 C10.34 10 9.68 10 9 10 C6 4.25 6 4.25 6 2 C4.02 2 2.04 2 0 2 C0 1.34 0 0.68 0 0 Z " fill="#68B7B8" transform="translate(438,109)"/>
<path d="M0 0 C1.22589844 0.01353516 1.22589844 0.01353516 2.4765625 0.02734375 C3.41628906 0.04474609 3.41628906 0.04474609 4.375 0.0625 C0.12474229 4.31275771 -8.15345162 3.96901354 -13.9296875 4.1875 C-16.49824974 4.1875 -19.05824213 4.15508846 -21.625 4.0625 C-21.625 3.4025 -21.625 2.7425 -21.625 2.0625 C-20.03558594 1.97162109 -20.03558594 1.97162109 -18.4140625 1.87890625 C-17.02602779 1.79449873 -15.63800768 1.70985083 -14.25 1.625 C-13.55132812 1.58568359 -12.85265625 1.54636719 -12.1328125 1.50585938 C-7.83774367 1.23741757 -4.27614021 -0.06108772 0 0 Z " fill="#6EBCBF" transform="translate(397.625,150.9375)"/>
<path d="M0 0 C-0.99 0.33 -1.98 0.66 -3 1 C-3 1.66 -3 2.32 -3 3 C-6.3 3 -9.6 3 -13 3 C-13.33 3.66 -13.66 4.32 -14 5 C-14.66 5 -15.32 5 -16 5 C-16 5.66 -16 6.32 -16 7 C-16.99 7 -17.98 7 -19 7 C-18.67 5.35 -18.34 3.7 -18 2 C-11.85221129 0.3722167 -6.35987804 -0.20190089 0 0 Z " fill="#68BBBD" transform="translate(242,115)"/>
<path d="M0 0 C0.33 0 0.66 0 1 0 C1.33 6.93 1.66 13.86 2 21 C5.99110319 22.9955516 7.69986566 23.19546065 12 23 C12.33 23.66 12.66 24.32 13 25 C11.58506449 25.10884119 10.16767057 25.18597617 8.75 25.25 C7.96109375 25.29640625 7.1721875 25.3428125 6.359375 25.390625 C4 25 4 25 1.71875 23.65625 C-1.02029139 19.42318604 -0.42031252 15.16941153 -0.25 10.25 C-0.23195312 9.26644531 -0.21390625 8.28289062 -0.1953125 7.26953125 C-0.14824126 4.84536217 -0.08250742 2.42317941 0 0 Z " fill="#6BBEBE" transform="translate(246,239)"/>
<path d="M0 0 C2.64 0 5.28 0 8 0 C8 2.64 8 5.28 8 8 C7.34 8 6.68 8 6 8 C5.67 7.67 5.34 7.34 5 7 C3.67479497 6.31731862 2.34187818 5.6492959 1 5 C1 4.34 1 3.68 1 3 C0.67 2.01 0.34 1.02 0 0 Z " fill="#4EC0C2" transform="translate(302,113)"/>
<path d="M0 0 C0.33 0.66 0.66 1.32 1 2 C2.98 2 4.96 2 7 2 C7 2.33 7 2.66 7 3 C-8.74487472 6.44419134 -8.74487472 6.44419134 -16 6 C-11.0523795 3.11388804 -5.66834163 2 0 2 C0 1.34 0 0.68 0 0 Z " fill="#75BFC1" transform="translate(97,258)"/>
<path d="M0 0 C4.98469052 -0.29321709 8.04820644 -0.18338925 12 3 C13.9375 5.4375 13.9375 5.4375 15 8 C14.1875 10.3125 14.1875 10.3125 13 12 C13 11.01 13 10.02 13 9 C12.34 9 11.68 9 11 9 C9 6 9 6 9 3 C8.01 3 7.02 3 6 3 C6 2.34 6 1.68 6 1 C4.02 1 2.04 1 0 1 C0 0.67 0 0.34 0 0 Z " fill="#75BBBD" transform="translate(208,110)"/>
<path d="M0 0 C0.74958984 0.00451172 1.49917969 0.00902344 2.27148438 0.01367188 C4.11852383 0.02543646 5.96552213 0.04337135 7.8125 0.0625 C8.1425 1.3825 8.4725 2.7025 8.8125 4.0625 C8.1525 3.7325 7.4925 3.4025 6.8125 3.0625 C5.36401418 2.97907841 3.91179131 2.95517139 2.4609375 2.96484375 C1.18476563 2.96967773 1.18476563 2.96967773 -0.1171875 2.97460938 C-1.00664062 2.98298828 -1.89609375 2.99136719 -2.8125 3 C-4.15828125 3.00676758 -4.15828125 3.00676758 -5.53125 3.01367188 C-7.75006648 3.02547409 -9.96875018 3.04193845 -12.1875 3.0625 C-9.97894074 -1.35461851 -4.30476406 -0.04887505 0 0 Z " fill="#6BBEC0" transform="translate(358.1875,257.9375)"/>
<path d="M0 0 C0.33 0.66 0.66 1.32 1 2 C2.32 1.67 3.64 1.34 5 1 C5 1.99 5 2.98 5 4 C4.34 4 3.68 4 3 4 C3.2784375 4.9590625 3.2784375 4.9590625 3.5625 5.9375 C3.706875 6.618125 3.85125 7.29875 4 8 C3.67 8.33 3.34 8.66 3 9 C3.66 9.33 4.32 9.66 5 10 C4.67 10.99 4.34 11.98 4 13 C1.78631706 10.78631706 0.13447079 9.06983375 -0.265625 5.88671875 C-0.25166986 3.92253213 -0.13286356 1.9597375 0 0 Z " fill="#5FBABC" transform="translate(76,250)"/>
<path d="M0 0 C0.66 0.33 1.32 0.66 2 1 C1.3566152 2.313702 0.71021785 3.62592898 0.0625 4.9375 C-0.29714844 5.66839844 -0.65679688 6.39929688 -1.02734375 7.15234375 C-2 9 -2 9 -3 10 C-3.23678716 12.69235776 -3.42198025 15.36498156 -3.5625 18.0625 C-3.60568359 18.82111328 -3.64886719 19.57972656 -3.69335938 20.36132812 C-3.79973633 22.24065438 -3.90039934 24.12030244 -4 26 C-4.66 25.67 -5.32 25.34 -6 25 C-5.76595745 7.65957447 -5.76595745 7.65957447 0 0 Z " fill="#6FB7B9" transform="translate(10,132)"/>
<path d="M0 0 C1.31538327 4.15771494 0.34433068 6.8879297 -1 11 C-1.66 11 -2.32 11 -3 11 C-3.66 13.31 -4.32 15.62 -5 18 C-5.66 18 -6.32 18 -7 18 C-5.06375702 11.79522136 -2.74390859 5.89174281 0 0 Z " fill="#6EBEC2" transform="translate(400,158)"/>
<path d="M0 0 C-8.26488368 7.04945961 -8.26488368 7.04945961 -13.16015625 6.9609375 C-15.11808376 6.71921805 -17.06175841 6.36759754 -19 6 C-19 5.67 -19 5.34 -19 5 C-18.39671875 4.93941406 -17.7934375 4.87882812 -17.171875 4.81640625 C-15.97304688 4.69072266 -15.97304688 4.69072266 -14.75 4.5625 C-13.96109375 4.48128906 -13.1721875 4.40007812 -12.359375 4.31640625 C-10.17635361 4.02365007 -8.1226818 3.57935581 -6 3 C-6 2.01 -6 1.02 -6 0 C-3 -1 -3 -1 0 0 Z " fill="#6AB9B9" transform="translate(64,258)"/>
<path d="M0 0 C0.103125 0.61875 0.20625 1.2375 0.3125 1.875 C0.87525373 4.36526484 0.87525373 4.36526484 4 6 C3.67 6.66 3.34 7.32 3 8 C2.01 7.67 1.02 7.34 0 7 C-0.268125 7.78375 -0.53625 8.5675 -0.8125 9.375 C-2 12 -2 12 -5 14 C-4.34580901 8.93001981 -2.1453591 4.58009223 0 0 Z " fill="#6CBDC3" transform="translate(311,203)"/>
<path d="M0 0 C1.23711749 3.97767638 0.3324316 6.08598218 -1 10 C-0.67 10.99 -0.34 11.98 0 13 C-0.9375 15.1875 -0.9375 15.1875 -2 17 C-2 16.01 -2 15.02 -2 14 C-2.99 14.33 -3.98 14.66 -5 15 C-4.37321829 11.33827525 -3.35548154 8.1181005 -1.9375 4.6875 C-1.39416016 3.36298828 -1.39416016 3.36298828 -0.83984375 2.01171875 C-0.56269531 1.34785156 -0.28554688 0.68398437 0 0 Z " fill="#6ABDC3" transform="translate(385,193)"/>
<path d="M0 0 C2.13181214 3.74287627 1.95685425 5.78984129 1 10 C0.01 10.33 -0.98 10.66 -2 11 C-3.68538601 12.99665314 -3.68538601 12.99665314 -5 15 C-4.43174347 9.45949887 -2.37113483 4.96284034 0 0 Z " fill="#69BCC1" transform="translate(317,188)"/>
<path d="M0 0 C0 1.33333333 0 2.66666667 0 4 C-4.95 4.33 -9.9 4.66 -15 5 C-15 4.34 -15 3.68 -15 3 C-7.575 1.515 -7.575 1.515 0 0 Z " fill="#6DBEC1" transform="translate(370,219)"/>
<path d="M0 0 C1.31223496 3.93670488 0.24296256 6.12488144 -1 10 C-2.32 10 -3.64 10 -5 10 C-4.67 7.69 -4.34 5.38 -4 3 C-2.68 2.67 -1.36 2.34 0 2 C0 1.34 0 0.68 0 0 Z " fill="#51BBBD" transform="translate(334,155)"/>
<path d="M0 0 C2 2 2 2 2.1875 5.4375 C2 9 2 9 1 12 C0.34 12 -0.32 12 -1 12 C-1.33 12.66 -1.66 13.32 -2 14 C-2.25328119 8.93437617 -1.33583899 4.84241633 0 0 Z " fill="#4DBDBF" transform="translate(157,191)"/>
<path d="M0 0 C6.16356805 1.6658292 11.48259656 4.87805286 17 8 C13.98968256 8.93423645 13.13349732 9.04449911 10 8 C10 7.34 10 6.68 10 6 C9.278125 5.731875 8.55625 5.46375 7.8125 5.1875 C5.01528026 4.00645167 2.53580025 2.66638302 0 1 C0 0.67 0 0.34 0 0 Z " fill="#70B8BB" transform="translate(54,110)"/>
<path d="M0 0 C0.33 0 0.66 0 1 0 C0.88638398 2.79256219 0.7596411 5.58344118 0.625 8.375 C0.5940625 9.1690625 0.563125 9.963125 0.53125 10.78125 C0.2265625 16.7734375 0.2265625 16.7734375 -2 19 C-4.125 18.625 -4.125 18.625 -6 18 C-4.35 17.34 -2.7 16.68 -1 16 C-1.01160156 15.34773438 -1.02320313 14.69546875 -1.03515625 14.0234375 C-1.08470994 9.2238086 -0.99413751 4.72215315 0 0 Z " fill="#74BCBD" transform="translate(185,241)"/>
<path d="M0 0 C2 2 2 2 2.04345703 3.97119141 C1.94919434 4.75671387 1.85493164 5.54223633 1.7578125 6.3515625 C1.66113281 7.20234375 1.56445312 8.053125 1.46484375 8.9296875 C1.29662109 10.26386719 1.29662109 10.26386719 1.125 11.625 C1.02058594 12.5221875 0.91617188 13.419375 0.80859375 14.34375 C0.54879548 16.5638443 0.27888059 18.78223534 0 21 C-0.33 21 -0.66 21 -1 21 C-1.0270203 18.24993392 -1.04684883 15.50013454 -1.0625 12.75 C-1.07087891 11.97269531 -1.07925781 11.19539062 -1.08789062 10.39453125 C-1.09111328 9.64042969 -1.09433594 8.88632813 -1.09765625 8.109375 C-1.10289307 7.41811523 -1.10812988 6.72685547 -1.11352539 6.01464844 C-0.99437971 3.90026102 -0.57618237 2.03358485 0 0 Z " fill="#5AB6BA" transform="translate(146,172)"/>
<path d="M0 0 C0.66 0 1.32 0 2 0 C2.433125 1.423125 2.433125 1.423125 2.875 2.875 C5.34837262 6.51231267 6.05128805 6.57934961 10.1875 7.375 C11.78818595 7.60857649 13.39185505 7.82500486 15 8 C15 8.33 15 8.66 15 9 C8.7606383 10.34574468 8.7606383 10.34574468 5.25 8.75 C1.23913043 5.63043478 1.23913043 5.63043478 0 4 C0 2.68 0 1.36 0 0 Z " fill="#70B5B7" transform="translate(47,168)"/>
<path d="M0 0 C0.33 0 0.66 0 1 0 C1 1.98 1 3.96 1 6 C1.99 6.33 2.98 6.66 4 7 C3.01 7.66 2.02 8.32 1 9 C0.484375 9.53625 -0.03125 10.0725 -0.5625 10.625 C-2 12 -2 12 -4 12 C-2.66666667 8 -1.33333333 4 0 0 Z " fill="#6ABFC7" transform="translate(329,158)"/>
<path d="M0 0 C1.41687119 4.25061356 0.19320039 6.71851625 -1 11 C-1.66 11 -2.32 11 -3 11 C-3.66 12.32 -4.32 13.64 -5 15 C-5.66 14.01 -6.32 13.02 -7 12 C-6.01 12 -5.02 12 -4 12 C-3.896875 11.319375 -3.79375 10.63875 -3.6875 9.9375 C-2.85274981 6.37084011 -1.50527246 3.33777806 0 0 Z " fill="#70BFC3" transform="translate(379,208)"/>
<path d="M0 0 C1.19935725 3.47651527 0.80128318 5.69868278 -0.25 9.1875 C-0.62898438 10.50814453 -0.62898438 10.50814453 -1.015625 11.85546875 C-1.34046875 12.56316406 -1.6653125 13.27085937 -2 14 C-2.99 14.33 -3.98 14.66 -5 15 C-4.37321829 11.33827525 -3.35548154 8.1181005 -1.9375 4.6875 C-1.39416016 3.36298828 -1.39416016 3.36298828 -0.83984375 2.01171875 C-0.56269531 1.34785156 -0.28554688 0.68398437 0 0 Z " fill="#6FBDBF" transform="translate(323,173)"/>
<path d="M0 0 C0.66 0.33 1.32 0.66 2 1 C3.53668865 1.22467831 5.07968054 1.40796805 6.625 1.5625 C7.44226563 1.64628906 8.25953125 1.73007813 9.1015625 1.81640625 C9.72804688 1.87699219 10.35453125 1.93757813 11 2 C11 2.33 11 2.66 11 3 C5.61509359 3.91657981 0.45769811 4.11138159 -5 4 C-3.73293765 1.46587529 -2.59334288 1.02161992 0 0 Z " fill="#50B6B5" transform="translate(386,117)"/>
<path d="M0 0 C0.66 0 1.32 0 2 0 C1.27991594 4.60853797 -0.31295939 8.67237409 -2 13 C-2.33 13 -2.66 13 -3 13 C-3 10.69 -3 8.38 -3 6 C-2.34 6 -1.68 6 -1 6 C-1.0309375 4.7934375 -1.0309375 4.7934375 -1.0625 3.5625 C-1 1 -1 1 0 0 Z " fill="#A2EFEF" transform="translate(332,219)"/>
<path d="M0 0 C0.33 0 0.66 0 1 0 C1 5.28 1 10.56 1 16 C-1 12 -1 12 -2 9 C-1.67 8.67 -1.34 8.34 -1 8 C-0.76924918 6.65252916 -0.58846937 5.29622435 -0.4375 3.9375 C-0.293125 2.638125 -0.14875 1.33875 0 0 Z " fill="#68B7C9" transform="translate(43,150)"/>
<path d="M0 0 C0 2.64 0 5.28 0 8 C-0.99 7.67 -1.98 7.34 -3 7 C-3 5.35 -3 3.7 -3 2 C-3.66 1.67 -4.32 1.34 -5 1 C-3 0 -3 0 0 0 Z " fill="#4BC0C5" transform="translate(251,211)"/>
<path d="M0 0 C0.66 0 1.32 0 2 0 C2 1.98 2 3.96 2 6 C0.68 6.33 -0.64 6.66 -2 7 C-2.33 5.68 -2.66 4.36 -3 3 C-2.34 2.67 -1.68 2.34 -1 2 C-0.67 1.34 -0.34 0.68 0 0 Z M0 3 C1 5 1 5 1 5 Z " fill="#5AC3CA" transform="translate(191,188)"/>
<path d="M0 0 C2.28304899 0.0179485 4.52425196 0.11763285 6.796875 0.33203125 C4.44773008 2.68117617 2.84008054 3.06343482 -0.328125 3.95703125 C-1.69324219 4.34761719 -1.69324219 4.34761719 -3.0859375 4.74609375 C-3.78460938 4.93945312 -4.48328125 5.1328125 -5.203125 5.33203125 C-4.06475685 2.29638286 -3.36675282 0.50740069 0 0 Z " fill="#A7F1F1" transform="translate(39.203125,135.66796875)"/>
<path d="M0 0 C2.31 0 4.62 0 7 0 C6.01 1.485 6.01 1.485 5 3 C2.6171875 3.29296875 2.6171875 3.29296875 -0.125 3.1875 C-1.03507812 3.16042969 -1.94515625 3.13335937 -2.8828125 3.10546875 C-3.58148438 3.07066406 -4.28015625 3.03585938 -5 3 C-5 2.67 -5 2.34 -5 2 C-3.35 1.67 -1.7 1.34 0 1 C0 0.67 0 0.34 0 0 Z " fill="#5EC0C1" transform="translate(357,251)"/>
<path d="M0 0 C0.33 0 0.66 0 1 0 C1.49230769 6.4 1.49230769 6.4 -1 9.4375 C-1.99 10.2109375 -1.99 10.2109375 -3 11 C-3.66 10.67 -4.32 10.34 -5 10 C-3.25 6.125 -3.25 6.125 -1 5 C-0.34444881 2.47266765 -0.34444881 2.47266765 0 0 Z " fill="#A4F0EF" transform="translate(71,231)"/>
<path d="M0 0 C2.64 0 5.28 0 8 0 C7.01 0.66 6.02 1.32 5 2 C5 2.99 5 3.98 5 5 C4.01 5 3.02 5 2 5 C1.34 3.35 0.68 1.7 0 0 Z " fill="#64BBBF" transform="translate(309,115)"/>
<path d="M0 0 C0.99 0.33 1.98 0.66 3 1 C2.01 1 1.02 1 0 1 C0 0.67 0 0.34 0 0 Z M0 2 C2 5 2 5 1.75 7.0625 C1 9 1 9 -1 11 C-1.09765625 4.84765625 -1.09765625 4.84765625 -1 3 C-0.67 2.67 -0.34 2.34 0 2 Z " fill="#4CB8B8" transform="translate(441,221)"/>
<path d="M0 0 C0.6875 1.6875 0.6875 1.6875 1 4 C-0.4375 6.75 -0.4375 6.75 -2 9 C-2.66 8.67 -3.32 8.34 -4 8 C-3.40138258 5.64828869 -2.73075648 3.3140622 -2 1 C-1.34 0.67 -0.68 0.34 0 0 Z " fill="#52B7B9" transform="translate(329,170)"/>
<path d="M0 0 C-2.97 1.32 -5.94 2.64 -9 4 C-9.33 3.34 -9.66 2.68 -10 2 C-9.34 2 -8.68 2 -8 2 C-8 1.34 -8 0.68 -8 0 C-4.63458162 -1.08174162 -3.70152678 -0.92538169 0 0 Z " fill="#66BCBE" transform="translate(99,115)"/>
<path d="M0 0 C6.52307692 0.49230769 6.52307692 0.49230769 8.9375 3.0625 C9.288125 3.701875 9.63875 4.34125 10 5 C8.68 4.67 7.36 4.34 6 4 C6 3.34 6 2.68 6 2 C4.02 2 2.04 2 0 2 C0 1.34 0 0.68 0 0 Z " fill="#71BEC2" transform="translate(438,109)"/>
<path d="M0 0 C-0.33 0.99 -0.66 1.98 -1 3 C-4.3 3 -7.6 3 -11 3 C-11 2.67 -11 2.34 -11 2 C-9.5422647 1.664061 -8.08378894 1.33133376 -6.625 1 C-5.40683594 0.7215625 -5.40683594 0.7215625 -4.1640625 0.4375 C-2 0 -2 0 0 0 Z " fill="#5BC0C7" transform="translate(320,260)"/>
<path d="M0 0 C0.66 0.33 1.32 0.66 2 1 C1.67 3.64 1.34 6.28 1 9 C-1 7 -1 7 -1.1875 3.9375 C-1 1 -1 1 0 0 Z " fill="#9BEDEB" transform="translate(365,233)"/>
<path d="M0 0 C-3.06246747 1.78409802 -5.22079273 2.22880021 -8.75 2.125 C-9.54921875 2.10695312 -10.3484375 2.08890625 -11.171875 2.0703125 C-11.77515625 2.04710937 -12.3784375 2.02390625 -13 2 C-13 1.67 -13 1.34 -13 1 C-8.20862412 -0.6290678 -4.94367454 -1.20577428 0 0 Z " fill="#57B6B7" transform="translate(358,227)"/>
<path d="M0 0 C5.875 0.875 5.875 0.875 7 2 C7.04092937 4.33297433 7.04241723 6.66705225 7 9 C6.67 9 6.34 9 6 9 C5.62875 7.6078125 5.62875 7.6078125 5.25 6.1875 C3.93545755 2.83541675 3.02036616 1.8122197 0 0 Z " fill="#51B6B5" transform="translate(44,138)"/>
<path d="M0 0 C1.31223496 3.93670488 0.24296256 6.12488144 -1 10 C-1.66 9.67 -2.32 9.34 -3 9 C-3 5.30581799 -1.71820705 3.22163822 0 0 Z " fill="#7FC6C7" transform="translate(14,124)"/>
<path d="M0 0 C1.98 0.99 3.96 1.98 6 3 C5.67 4.65 5.34 6.3 5 8 C4.67 7.01 4.34 6.02 4 5 C3.34 5 2.68 5 2 5 C1.34 3.35 0.68 1.7 0 0 Z " fill="#68C0C3" transform="translate(217,114)"/>
</svg>
